<mxfile host="Electron" modified="2024-04-14T10:28:48.391Z" agent="Mozilla/5.0 (X11; Linux x86_64) AppleWebKit/537.36 (KHTML, like Gecko) draw.io/24.1.0 Chrome/120.0.6099.109 Electron/28.1.0 Safari/537.36" etag="RWTsuAPnEAHopmZOO5C2" version="24.1.0" type="device">
  <diagram name="Page-1" id="qawksDHAI9BjH06C1s4l">
    <mxGraphModel dx="1434" dy="869" grid="1" gridSize="10" guides="1" tooltips="1" connect="1" arrows="1" fold="1" page="1" pageScale="1" pageWidth="1169" pageHeight="827" background="#F7F7F7" math="0" shadow="0">
      <root>
        <mxCell id="0" />
        <mxCell id="1" parent="0" />
        <mxCell id="8lj63ykdYpUpRy-qD6VS-44" value="&lt;font style=&quot;font-size: 20px;&quot;&gt;Select scheduling strategy&lt;/font&gt;" style="shape=mxgraph.mockup.containers.marginRect;rectMarginTop=10;strokeColor=#666666;strokeWidth=1;dashed=0;rounded=1;arcSize=5;recursiveResize=0;html=1;whiteSpace=wrap;spacingBottom=-20;" parent="1" vertex="1">
          <mxGeometry x="400" y="440" width="500" height="106" as="geometry" />
        </mxCell>
        <mxCell id="8lj63ykdYpUpRy-qD6VS-45" value="Java Thread Scheduller" style="shape=rect;strokeColor=none;fillColor=#008cff;strokeWidth=1;dashed=0;rounded=1;arcSize=20;fontColor=#000000;fontSize=17;spacing=2;spacingTop=-2;align=center;autosize=1;spacingLeft=4;resizeWidth=0;resizeHeight=0;perimeter=none;html=1;whiteSpace=wrap;" parent="8lj63ykdYpUpRy-qD6VS-44" vertex="1">
          <mxGeometry x="17" width="200" height="30" as="geometry" />
        </mxCell>
        <mxCell id="8lj63ykdYpUpRy-qD6VS-46" value="" style="dashed=0;outlineConnect=0;html=1;align=center;labelPosition=center;verticalLabelPosition=bottom;verticalAlign=top;shape=mxgraph.weblogos.java" parent="8lj63ykdYpUpRy-qD6VS-44" vertex="1">
          <mxGeometry x="18" y="32.5" width="34.4" height="65" as="geometry" />
        </mxCell>
        <mxCell id="8lj63ykdYpUpRy-qD6VS-16" value="&lt;font style=&quot;font-size: 20px;&quot;&gt;Select scheduling strategy&lt;/font&gt;" style="shape=mxgraph.mockup.containers.marginRect;rectMarginTop=10;strokeColor=#666666;strokeWidth=1;dashed=0;rounded=1;arcSize=5;recursiveResize=0;html=1;whiteSpace=wrap;spacingBottom=-20;" parent="1" vertex="1">
          <mxGeometry x="400" y="300" width="500" height="106" as="geometry" />
        </mxCell>
        <mxCell id="8lj63ykdYpUpRy-qD6VS-17" value="OS Scheduller" style="shape=rect;strokeColor=none;fillColor=#008cff;strokeWidth=1;dashed=0;rounded=1;arcSize=20;fontColor=#000000;fontSize=17;spacing=2;spacingTop=-2;align=center;autosize=1;spacingLeft=4;resizeWidth=0;resizeHeight=0;perimeter=none;html=1;whiteSpace=wrap;" parent="8lj63ykdYpUpRy-qD6VS-16" vertex="1">
          <mxGeometry x="47" width="140" height="30" as="geometry" />
        </mxCell>
        <mxCell id="8lj63ykdYpUpRy-qD6VS-25" value="" style="dashed=0;outlineConnect=0;html=1;align=center;labelPosition=center;verticalLabelPosition=bottom;verticalAlign=top;shape=mxgraph.weblogos.java" parent="8lj63ykdYpUpRy-qD6VS-16" vertex="1">
          <mxGeometry x="18" y="32.5" width="34.4" height="65" as="geometry" />
        </mxCell>
        <mxCell id="8lj63ykdYpUpRy-qD6VS-8" value="&lt;font style=&quot;font-size: 20px;&quot;&gt;CPU cores&lt;/font&gt;" style="shape=mxgraph.mockup.containers.marginRect;rectMarginTop=10;strokeColor=#666666;strokeWidth=1;dashed=0;rounded=1;arcSize=5;recursiveResize=0;html=1;whiteSpace=wrap;" parent="1" vertex="1">
          <mxGeometry x="400" y="20" width="500" height="250" as="geometry" />
        </mxCell>
        <mxCell id="8lj63ykdYpUpRy-qD6VS-9" value="CPU" style="shape=rect;strokeColor=none;fillColor=#008cff;strokeWidth=1;dashed=0;rounded=1;arcSize=20;fontColor=#000000;fontSize=17;spacing=2;spacingTop=-2;align=center;autosize=1;spacingLeft=4;resizeWidth=0;resizeHeight=0;perimeter=none;html=1;whiteSpace=wrap;" parent="8lj63ykdYpUpRy-qD6VS-8" vertex="1">
          <mxGeometry x="18" width="60" height="30" as="geometry" />
        </mxCell>
        <mxCell id="8lj63ykdYpUpRy-qD6VS-7" value="" style="outlineConnect=0;dashed=0;verticalLabelPosition=bottom;verticalAlign=top;align=center;html=1;shape=mxgraph.aws3.police_emergency;fillColor=#5294CF;gradientColor=none;" parent="8lj63ykdYpUpRy-qD6VS-8" vertex="1">
          <mxGeometry x="207" y="20" width="79.5" height="79.5" as="geometry" />
        </mxCell>
        <mxCell id="8lj63ykdYpUpRy-qD6VS-10" value="" style="sketch=0;pointerEvents=1;shadow=0;dashed=0;html=1;strokeColor=none;fillColor=#434445;aspect=fixed;labelPosition=center;verticalLabelPosition=bottom;verticalAlign=top;align=center;outlineConnect=0;shape=mxgraph.vvd.cpu;" parent="8lj63ykdYpUpRy-qD6VS-8" vertex="1">
          <mxGeometry x="15" y="161" width="50" height="50" as="geometry" />
        </mxCell>
        <mxCell id="8lj63ykdYpUpRy-qD6VS-11" value="" style="sketch=0;pointerEvents=1;shadow=0;dashed=0;html=1;strokeColor=none;fillColor=#434445;aspect=fixed;labelPosition=center;verticalLabelPosition=bottom;verticalAlign=top;align=center;outlineConnect=0;shape=mxgraph.vvd.cpu;" parent="8lj63ykdYpUpRy-qD6VS-8" vertex="1">
          <mxGeometry x="92" y="161" width="50" height="50" as="geometry" />
        </mxCell>
        <mxCell id="8lj63ykdYpUpRy-qD6VS-12" value="" style="sketch=0;pointerEvents=1;shadow=0;dashed=0;html=1;strokeColor=none;fillColor=#434445;aspect=fixed;labelPosition=center;verticalLabelPosition=bottom;verticalAlign=top;align=center;outlineConnect=0;shape=mxgraph.vvd.cpu;" parent="8lj63ykdYpUpRy-qD6VS-8" vertex="1">
          <mxGeometry x="180" y="161" width="50" height="50" as="geometry" />
        </mxCell>
        <mxCell id="8lj63ykdYpUpRy-qD6VS-13" value="" style="sketch=0;pointerEvents=1;shadow=0;dashed=0;html=1;strokeColor=none;fillColor=#434445;aspect=fixed;labelPosition=center;verticalLabelPosition=bottom;verticalAlign=top;align=center;outlineConnect=0;shape=mxgraph.vvd.cpu;" parent="8lj63ykdYpUpRy-qD6VS-8" vertex="1">
          <mxGeometry x="263.5" y="161" width="50" height="50" as="geometry" />
        </mxCell>
        <mxCell id="8lj63ykdYpUpRy-qD6VS-14" value="" style="sketch=0;pointerEvents=1;shadow=0;dashed=0;html=1;strokeColor=none;fillColor=#434445;aspect=fixed;labelPosition=center;verticalLabelPosition=bottom;verticalAlign=top;align=center;outlineConnect=0;shape=mxgraph.vvd.cpu;" parent="8lj63ykdYpUpRy-qD6VS-8" vertex="1">
          <mxGeometry x="346" y="161" width="50" height="50" as="geometry" />
        </mxCell>
        <mxCell id="8lj63ykdYpUpRy-qD6VS-15" value="" style="sketch=0;pointerEvents=1;shadow=0;dashed=0;html=1;strokeColor=none;fillColor=#434445;aspect=fixed;labelPosition=center;verticalLabelPosition=bottom;verticalAlign=top;align=center;outlineConnect=0;shape=mxgraph.vvd.cpu;" parent="8lj63ykdYpUpRy-qD6VS-8" vertex="1">
          <mxGeometry x="434" y="161" width="50" height="50" as="geometry" />
        </mxCell>
        <mxCell id="8lj63ykdYpUpRy-qD6VS-20" value="" style="shape=mxgraph.mockup.containers.marginRect;rectMarginTop=10;strokeColor=#666666;strokeWidth=1;dashed=0;rounded=1;arcSize=5;recursiveResize=0;html=1;whiteSpace=wrap;" parent="1" vertex="1">
          <mxGeometry x="400" y="578" width="500" height="110" as="geometry" />
        </mxCell>
        <mxCell id="8lj63ykdYpUpRy-qD6VS-21" value="Application Threads" style="shape=rect;strokeColor=none;fillColor=#008cff;strokeWidth=1;dashed=0;rounded=1;arcSize=20;fontColor=#000000;fontSize=17;spacing=2;spacingTop=-2;align=center;autosize=1;spacingLeft=4;resizeWidth=0;resizeHeight=0;perimeter=none;html=1;whiteSpace=wrap;" parent="8lj63ykdYpUpRy-qD6VS-20" vertex="1">
          <mxGeometry x="18" width="180" height="30" as="geometry" />
        </mxCell>
        <mxCell id="8lj63ykdYpUpRy-qD6VS-28" value="" style="strokeColor=#dddddd;shadow=1;strokeWidth=1;rounded=1;absoluteArcSize=1;arcSize=2;" parent="8lj63ykdYpUpRy-qD6VS-20" vertex="1">
          <mxGeometry x="25" y="39" width="120" height="60" as="geometry" />
        </mxCell>
        <mxCell id="8lj63ykdYpUpRy-qD6VS-29" value="&lt;font color=&quot;#000000&quot;&gt;Thread 1&lt;/font&gt;&lt;br&gt;Priority 7" style="editableCssRules=.*;html=1;fontColor=#999999;shape=image;verticalLabelPosition=middle;verticalAlign=middle;labelPosition=right;align=left;spacingLeft=20;part=1;points=[];imageAspect=0;image=data:image/svg+xml,PHN2ZyB4bWxucz0iaHR0cDovL3d3dy53My5vcmcvMjAwMC9zdmciIHhtbG5zOnY9Imh0dHBzOi8vdmVjdGEuaW8vbmFubyIgd2lkdGg9IjE5LjkyMTQ0MjAzMTg2MDM1IiBoZWlnaHQ9IjE5Ljc3ODMyMDMxMjUiIHZpZXdCb3g9Ii0wLjAwMDQ0MTU1NzE3NDc4MTMzNzQgMC4yNSAxOS45MjE0NDIwMzE4NjAzNSAxOS43NzgzMjAzMTI1Ij4mI3hhOwk8c3R5bGUgdHlwZT0idGV4dC9jc3MiPiYjeGE7CS5zdDB7ZmlsbDojNDI4NWY0O30mI3hhOwkuc3Qxe2ZpbGw6I2FlY2JmYTt9JiN4YTsJLnN0MntmaWxsLXJ1bGU6ZXZlbm9kZH0mI3hhOwkuc3Qze2ZpbGw6IzY2OWRmNjt9JiN4YTsJPC9zdHlsZT4mI3hhOwk8cGF0aCBjbGFzcz0ic3QwIiBkPSJNNC40NjEgMTYuMjRhMyAzIDAgMSAxIDAtNiAzIDMgMCAxIDEgMCA2em0zLjYzLS40YTQuNDMgNC40MyAwIDAgMC01LjA0OS02LjcxNEE0LjQzIDQuNDMgMCAwIDAgLjAxMSAxMy4zMmE0LjkxIDQuOTEgMCAwIDAgMCAuNjcgMy40MyAzLjQzIDAgMCAwIC4wOS40NGwuMDYuMjFhNC41OSA0LjU5IDAgMCAwIC4zNC43OSA0LjI0IDQuMjQgMCAwIDAgLjc2IDFsLjE1LjE1LjMzLjI3YTQuMTYgNC4xNiAwIDAgMCAuNzMuNDQgNC40NCA0LjQ0IDAgMCAwIDQuNTQtLjI5bDIuOTMgMi45M2EuMzMuMzMgMCAwIDAgLjQ3IDBsLjY2LS42NWEuMzMuMzMgMCAwIDAgMC0uNDd6Ii8+JiN4YTsJPHBhdGggY2xhc3M9InN0MSIgZD0iTTkuODExIDE0LjU4YTUuNDEgNS40MSAwIDAgMCAuMi0xLjUxIDUuNTMgNS41MyAwIDAgMC01LjYxLTUuNDIgNS44MiA1LjgyIDAgMCAwLTEuOTIuMzVWMy44M2EuNjIuNjIgMCAwIDEgLjYyLS42MmgxNi4xOWEuNjMuNjMgMCAwIDEgLjYzLjYyVjE0YS42My42MyAwIDAgMS0uNjMuNjN6Ii8+JiN4YTsJPGcgY2xhc3M9InN0MiI+JiN4YTsJCTxwYXRoIGNsYXNzPSJzdDMiIGQ9Ik0xMy41OTEgMy4yMVYxLjczaC00LjQ0djEuNDhoLTEuNDlWLjg3YS42My42MyAwIDAgMSAuNjMtLjYyaDYuMTZhLjYyLjYyIDAgMCAxIC42Mi42MnYyLjM0eiIvPiYjeGE7CQk8cGF0aCBjbGFzcz0ic3QwIiBkPSJNMTUuMDcxIDMuMjFoLTEuNDhsMS40OC0uNDd6bS01LjkzIDBoLTEuNDlsMS40OS0uNTR6Ii8+JiN4YTsJPC9nPiYjeGE7PC9zdmc+;" parent="8lj63ykdYpUpRy-qD6VS-28" vertex="1">
          <mxGeometry width="30" height="30" relative="1" as="geometry">
            <mxPoint x="15" y="15" as="offset" />
          </mxGeometry>
        </mxCell>
        <mxCell id="8lj63ykdYpUpRy-qD6VS-30" value="" style="strokeColor=#dddddd;shadow=1;strokeWidth=1;rounded=1;absoluteArcSize=1;arcSize=2;" parent="8lj63ykdYpUpRy-qD6VS-20" vertex="1">
          <mxGeometry x="160" y="39" width="120" height="60" as="geometry" />
        </mxCell>
        <mxCell id="8lj63ykdYpUpRy-qD6VS-31" value="&lt;font color=&quot;#000000&quot;&gt;Thread 5&lt;/font&gt;&lt;br&gt;Priority 2" style="editableCssRules=.*;html=1;fontColor=#999999;shape=image;verticalLabelPosition=middle;verticalAlign=middle;labelPosition=right;align=left;spacingLeft=20;part=1;points=[];imageAspect=0;image=data:image/svg+xml,PHN2ZyB4bWxucz0iaHR0cDovL3d3dy53My5vcmcvMjAwMC9zdmciIHhtbG5zOnY9Imh0dHBzOi8vdmVjdGEuaW8vbmFubyIgd2lkdGg9IjE5LjkyMTQ0MjAzMTg2MDM1IiBoZWlnaHQ9IjE5Ljc3ODMyMDMxMjUiIHZpZXdCb3g9Ii0wLjAwMDQ0MTU1NzE3NDc4MTMzNzQgMC4yNSAxOS45MjE0NDIwMzE4NjAzNSAxOS43NzgzMjAzMTI1Ij4mI3hhOwk8c3R5bGUgdHlwZT0idGV4dC9jc3MiPiYjeGE7CS5zdDB7ZmlsbDojNDI4NWY0O30mI3hhOwkuc3Qxe2ZpbGw6I2FlY2JmYTt9JiN4YTsJLnN0MntmaWxsLXJ1bGU6ZXZlbm9kZH0mI3hhOwkuc3Qze2ZpbGw6IzY2OWRmNjt9JiN4YTsJPC9zdHlsZT4mI3hhOwk8cGF0aCBjbGFzcz0ic3QwIiBkPSJNNC40NjEgMTYuMjRhMyAzIDAgMSAxIDAtNiAzIDMgMCAxIDEgMCA2em0zLjYzLS40YTQuNDMgNC40MyAwIDAgMC01LjA0OS02LjcxNEE0LjQzIDQuNDMgMCAwIDAgLjAxMSAxMy4zMmE0LjkxIDQuOTEgMCAwIDAgMCAuNjcgMy40MyAzLjQzIDAgMCAwIC4wOS40NGwuMDYuMjFhNC41OSA0LjU5IDAgMCAwIC4zNC43OSA0LjI0IDQuMjQgMCAwIDAgLjc2IDFsLjE1LjE1LjMzLjI3YTQuMTYgNC4xNiAwIDAgMCAuNzMuNDQgNC40NCA0LjQ0IDAgMCAwIDQuNTQtLjI5bDIuOTMgMi45M2EuMzMuMzMgMCAwIDAgLjQ3IDBsLjY2LS42NWEuMzMuMzMgMCAwIDAgMC0uNDd6Ii8+JiN4YTsJPHBhdGggY2xhc3M9InN0MSIgZD0iTTkuODExIDE0LjU4YTUuNDEgNS40MSAwIDAgMCAuMi0xLjUxIDUuNTMgNS41MyAwIDAgMC01LjYxLTUuNDIgNS44MiA1LjgyIDAgMCAwLTEuOTIuMzVWMy44M2EuNjIuNjIgMCAwIDEgLjYyLS42MmgxNi4xOWEuNjMuNjMgMCAwIDEgLjYzLjYyVjE0YS42My42MyAwIDAgMS0uNjMuNjN6Ii8+JiN4YTsJPGcgY2xhc3M9InN0MiI+JiN4YTsJCTxwYXRoIGNsYXNzPSJzdDMiIGQ9Ik0xMy41OTEgMy4yMVYxLjczaC00LjQ0djEuNDhoLTEuNDlWLjg3YS42My42MyAwIDAgMSAuNjMtLjYyaDYuMTZhLjYyLjYyIDAgMCAxIC42Mi42MnYyLjM0eiIvPiYjeGE7CQk8cGF0aCBjbGFzcz0ic3QwIiBkPSJNMTUuMDcxIDMuMjFoLTEuNDhsMS40OC0uNDd6bS01LjkzIDBoLTEuNDlsMS40OS0uNTR6Ii8+JiN4YTsJPC9nPiYjeGE7PC9zdmc+;" parent="8lj63ykdYpUpRy-qD6VS-30" vertex="1">
          <mxGeometry width="30" height="30" relative="1" as="geometry">
            <mxPoint x="15" y="15" as="offset" />
          </mxGeometry>
        </mxCell>
        <mxCell id="8lj63ykdYpUpRy-qD6VS-32" value="" style="shape=mxgraph.gcp2.doubleRect;strokeColor=#dddddd;shadow=1;strokeWidth=1;rounded=1;absoluteArcSize=1;arcSize=2;" parent="8lj63ykdYpUpRy-qD6VS-20" vertex="1">
          <mxGeometry x="350" y="35" width="128" height="68" as="geometry" />
        </mxCell>
        <mxCell id="8lj63ykdYpUpRy-qD6VS-33" value="&lt;font color=&quot;#000000&quot;&gt;Thread n&lt;/font&gt;&lt;br&gt;Priority n" style="editableCssRules=.*;html=1;fontColor=#999999;shape=image;verticalLabelPosition=middle;verticalAlign=middle;labelPosition=right;align=left;spacingLeft=20;part=1;points=[];imageAspect=0;image=data:image/svg+xml,PHN2ZyB4bWxucz0iaHR0cDovL3d3dy53My5vcmcvMjAwMC9zdmciIHhtbG5zOnY9Imh0dHBzOi8vdmVjdGEuaW8vbmFubyIgd2lkdGg9IjE5LjkyMTQ0MjAzMTg2MDM1IiBoZWlnaHQ9IjE5Ljc3ODMyMDMxMjUiIHZpZXdCb3g9Ii0wLjAwMDQ0MTU1NzE3NDc4MTMzNzQgMC4yNSAxOS45MjE0NDIwMzE4NjAzNSAxOS43NzgzMjAzMTI1Ij4mI3hhOwk8c3R5bGUgdHlwZT0idGV4dC9jc3MiPiYjeGE7CS5zdDB7ZmlsbDojNDI4NWY0O30mI3hhOwkuc3Qxe2ZpbGw6I2FlY2JmYTt9JiN4YTsJLnN0MntmaWxsLXJ1bGU6ZXZlbm9kZH0mI3hhOwkuc3Qze2ZpbGw6IzY2OWRmNjt9JiN4YTsJPC9zdHlsZT4mI3hhOwk8cGF0aCBjbGFzcz0ic3QwIiBkPSJNNC40NjEgMTYuMjRhMyAzIDAgMSAxIDAtNiAzIDMgMCAxIDEgMCA2em0zLjYzLS40YTQuNDMgNC40MyAwIDAgMC01LjA0OS02LjcxNEE0LjQzIDQuNDMgMCAwIDAgLjAxMSAxMy4zMmE0LjkxIDQuOTEgMCAwIDAgMCAuNjcgMy40MyAzLjQzIDAgMCAwIC4wOS40NGwuMDYuMjFhNC41OSA0LjU5IDAgMCAwIC4zNC43OSA0LjI0IDQuMjQgMCAwIDAgLjc2IDFsLjE1LjE1LjMzLjI3YTQuMTYgNC4xNiAwIDAgMCAuNzMuNDQgNC40NCA0LjQ0IDAgMCAwIDQuNTQtLjI5bDIuOTMgMi45M2EuMzMuMzMgMCAwIDAgLjQ3IDBsLjY2LS42NWEuMzMuMzMgMCAwIDAgMC0uNDd6Ii8+JiN4YTsJPHBhdGggY2xhc3M9InN0MSIgZD0iTTkuODExIDE0LjU4YTUuNDEgNS40MSAwIDAgMCAuMi0xLjUxIDUuNTMgNS41MyAwIDAgMC01LjYxLTUuNDIgNS44MiA1LjgyIDAgMCAwLTEuOTIuMzVWMy44M2EuNjIuNjIgMCAwIDEgLjYyLS42MmgxNi4xOWEuNjMuNjMgMCAwIDEgLjYzLjYyVjE0YS42My42MyAwIDAgMS0uNjMuNjN6Ii8+JiN4YTsJPGcgY2xhc3M9InN0MiI+JiN4YTsJCTxwYXRoIGNsYXNzPSJzdDMiIGQ9Ik0xMy41OTEgMy4yMVYxLjczaC00LjQ0djEuNDhoLTEuNDlWLjg3YS42My42MyAwIDAgMSAuNjMtLjYyaDYuMTZhLjYyLjYyIDAgMCAxIC42Mi42MnYyLjM0eiIvPiYjeGE7CQk8cGF0aCBjbGFzcz0ic3QwIiBkPSJNMTUuMDcxIDMuMjFoLTEuNDhsMS40OC0uNDd6bS01LjkzIDBoLTEuNDlsMS40OS0uNTR6Ii8+JiN4YTsJPC9nPiYjeGE7PC9zdmc+;" parent="8lj63ykdYpUpRy-qD6VS-32" vertex="1">
          <mxGeometry width="30" height="30" relative="1" as="geometry">
            <mxPoint x="15" y="15" as="offset" />
          </mxGeometry>
        </mxCell>
        <mxCell id="8lj63ykdYpUpRy-qD6VS-34" value="&lt;font style=&quot;font-size: 22px;&quot;&gt;...&lt;/font&gt;" style="text;html=1;align=center;verticalAlign=middle;whiteSpace=wrap;rounded=0;" parent="8lj63ykdYpUpRy-qD6VS-20" vertex="1">
          <mxGeometry x="280" y="54" width="60" height="30" as="geometry" />
        </mxCell>
        <mxCell id="8lj63ykdYpUpRy-qD6VS-23" style="edgeStyle=orthogonalEdgeStyle;rounded=0;orthogonalLoop=1;jettySize=auto;html=1;endArrow=block;endFill=1;shape=flexArrow;fillColor=#ffe6cc;strokeColor=#d79b00;entryX=0.5;entryY=1;entryDx=0;entryDy=0;startArrow=block;" parent="1" edge="1">
          <mxGeometry relative="1" as="geometry">
            <mxPoint x="651" y="602" as="sourcePoint" />
            <mxPoint x="651" y="537" as="targetPoint" />
          </mxGeometry>
        </mxCell>
        <mxCell id="8lj63ykdYpUpRy-qD6VS-38" style="edgeStyle=orthogonalEdgeStyle;rounded=0;orthogonalLoop=1;jettySize=auto;html=1;startArrow=classic;startFill=1;" parent="1" source="8lj63ykdYpUpRy-qD6VS-10" target="8lj63ykdYpUpRy-qD6VS-16" edge="1">
          <mxGeometry relative="1" as="geometry">
            <Array as="points">
              <mxPoint x="440" y="260" />
              <mxPoint x="650" y="260" />
            </Array>
          </mxGeometry>
        </mxCell>
        <mxCell id="8lj63ykdYpUpRy-qD6VS-39" style="edgeStyle=orthogonalEdgeStyle;rounded=0;orthogonalLoop=1;jettySize=auto;html=1;startArrow=classic;startFill=1;" parent="1" source="8lj63ykdYpUpRy-qD6VS-11" target="8lj63ykdYpUpRy-qD6VS-16" edge="1">
          <mxGeometry relative="1" as="geometry">
            <Array as="points">
              <mxPoint x="517" y="260" />
              <mxPoint x="650" y="260" />
            </Array>
          </mxGeometry>
        </mxCell>
        <mxCell id="8lj63ykdYpUpRy-qD6VS-40" style="edgeStyle=orthogonalEdgeStyle;rounded=0;orthogonalLoop=1;jettySize=auto;html=1;startArrow=classic;startFill=1;" parent="1" source="8lj63ykdYpUpRy-qD6VS-12" target="8lj63ykdYpUpRy-qD6VS-16" edge="1">
          <mxGeometry relative="1" as="geometry">
            <mxPoint x="650" y="300" as="targetPoint" />
            <Array as="points">
              <mxPoint x="605" y="260" />
              <mxPoint x="650" y="260" />
            </Array>
          </mxGeometry>
        </mxCell>
        <mxCell id="8lj63ykdYpUpRy-qD6VS-41" style="edgeStyle=orthogonalEdgeStyle;rounded=0;orthogonalLoop=1;jettySize=auto;html=1;startArrow=classic;startFill=1;" parent="1" source="8lj63ykdYpUpRy-qD6VS-13" target="8lj63ykdYpUpRy-qD6VS-16" edge="1">
          <mxGeometry relative="1" as="geometry">
            <Array as="points">
              <mxPoint x="688" y="260" />
              <mxPoint x="650" y="260" />
            </Array>
          </mxGeometry>
        </mxCell>
        <mxCell id="8lj63ykdYpUpRy-qD6VS-42" style="edgeStyle=orthogonalEdgeStyle;rounded=0;orthogonalLoop=1;jettySize=auto;html=1;startArrow=classic;startFill=1;" parent="1" source="8lj63ykdYpUpRy-qD6VS-14" target="8lj63ykdYpUpRy-qD6VS-16" edge="1">
          <mxGeometry relative="1" as="geometry">
            <Array as="points">
              <mxPoint x="771" y="260" />
              <mxPoint x="650" y="260" />
            </Array>
          </mxGeometry>
        </mxCell>
        <mxCell id="8lj63ykdYpUpRy-qD6VS-43" style="edgeStyle=orthogonalEdgeStyle;rounded=0;orthogonalLoop=1;jettySize=auto;html=1;startArrow=classic;startFill=1;" parent="1" source="8lj63ykdYpUpRy-qD6VS-15" target="8lj63ykdYpUpRy-qD6VS-16" edge="1">
          <mxGeometry relative="1" as="geometry">
            <Array as="points">
              <mxPoint x="859" y="260" />
              <mxPoint x="650" y="260" />
            </Array>
          </mxGeometry>
        </mxCell>
        <mxCell id="8lj63ykdYpUpRy-qD6VS-47" style="edgeStyle=orthogonalEdgeStyle;rounded=0;orthogonalLoop=1;jettySize=auto;html=1;endArrow=block;endFill=1;shape=flexArrow;fillColor=#ffe6cc;strokeColor=#d79b00;entryX=0.5;entryY=1;entryDx=0;entryDy=0;startArrow=block;" parent="1" edge="1">
          <mxGeometry relative="1" as="geometry">
            <mxPoint x="650" y="460" as="sourcePoint" />
            <mxPoint x="650" y="395" as="targetPoint" />
          </mxGeometry>
        </mxCell>
        <mxCell id="8lj63ykdYpUpRy-qD6VS-50" value="Operation system" style="text;html=1;align=center;verticalAlign=middle;whiteSpace=wrap;rounded=0;horizontal=0;fontSize=34;" parent="1" vertex="1">
          <mxGeometry x="280" y="20" width="70" height="410" as="geometry" />
        </mxCell>
        <mxCell id="8lj63ykdYpUpRy-qD6VS-51" value="JVM" style="text;html=1;align=center;verticalAlign=middle;whiteSpace=wrap;rounded=0;horizontal=0;fontSize=34;" parent="1" vertex="1">
          <mxGeometry x="280" y="428" width="70" height="302" as="geometry" />
        </mxCell>
      </root>
    </mxGraphModel>
  </diagram>
</mxfile>
